<mxfile host="app.diagrams.net" agent="Mozilla/5.0 (X11; Linux x86_64; rv:133.0) Gecko/20100101 Firefox/133.0" version="26.0.10">
  <diagram name="Page-1" id="kooQksqYOUv48a2rarpA">
    <mxGraphModel dx="1407" dy="497" grid="1" gridSize="10" guides="1" tooltips="1" connect="1" arrows="1" fold="1" page="1" pageScale="1" pageWidth="850" pageHeight="1100" math="0" shadow="0">
      <root>
        <mxCell id="0" />
        <mxCell id="1" parent="0" />
        <mxCell id="_nbheapz8Z2TyEhXIbiW-1" style="edgeStyle=orthogonalEdgeStyle;rounded=0;orthogonalLoop=1;jettySize=auto;html=1;" edge="1" parent="1" source="_nbheapz8Z2TyEhXIbiW-2" target="_nbheapz8Z2TyEhXIbiW-4">
          <mxGeometry relative="1" as="geometry" />
        </mxCell>
        <mxCell id="_nbheapz8Z2TyEhXIbiW-2" value="&lt;div&gt;Client&lt;/div&gt;" style="image;aspect=fixed;perimeter=ellipsePerimeter;html=1;align=center;shadow=0;dashed=0;spacingTop=3;image=img/lib/active_directory/laptop_client.svg;" vertex="1" parent="1">
          <mxGeometry x="150" y="255" width="45" height="50" as="geometry" />
        </mxCell>
        <mxCell id="_nbheapz8Z2TyEhXIbiW-3" style="edgeStyle=orthogonalEdgeStyle;rounded=0;orthogonalLoop=1;jettySize=auto;html=1;" edge="1" parent="1" source="_nbheapz8Z2TyEhXIbiW-4" target="_nbheapz8Z2TyEhXIbiW-5">
          <mxGeometry relative="1" as="geometry" />
        </mxCell>
        <mxCell id="_nbheapz8Z2TyEhXIbiW-4" value="Client connects to the Server using SSH" style="ellipse;whiteSpace=wrap;html=1;" vertex="1" parent="1">
          <mxGeometry x="280" y="240" width="120" height="80" as="geometry" />
        </mxCell>
        <mxCell id="_nbheapz8Z2TyEhXIbiW-16" style="edgeStyle=orthogonalEdgeStyle;rounded=0;orthogonalLoop=1;jettySize=auto;html=1;entryX=0.5;entryY=0;entryDx=0;entryDy=0;" edge="1" parent="1" source="_nbheapz8Z2TyEhXIbiW-5" target="_nbheapz8Z2TyEhXIbiW-13">
          <mxGeometry relative="1" as="geometry" />
        </mxCell>
        <mxCell id="_nbheapz8Z2TyEhXIbiW-5" value="Customer sends a package to the server" style="ellipse;whiteSpace=wrap;html=1;" vertex="1" parent="1">
          <mxGeometry x="280" y="360" width="120" height="80" as="geometry" />
        </mxCell>
        <mxCell id="_nbheapz8Z2TyEhXIbiW-6" value="Package" style="swimlane;fontStyle=0;childLayout=stackLayout;horizontal=1;startSize=30;horizontalStack=0;resizeParent=1;resizeParentMax=0;resizeLast=0;collapsible=1;marginBottom=0;whiteSpace=wrap;html=1;" vertex="1" parent="1">
          <mxGeometry x="60" y="400" width="160" height="180" as="geometry" />
        </mxCell>
        <mxCell id="_nbheapz8Z2TyEhXIbiW-7" value="&lt;div&gt;PostURL: String&lt;br&gt;&lt;/div&gt;" style="text;strokeColor=none;fillColor=none;align=left;verticalAlign=middle;spacingLeft=4;spacingRight=4;overflow=hidden;points=[[0,0.5],[1,0.5]];portConstraint=eastwest;rotatable=0;whiteSpace=wrap;html=1;" vertex="1" parent="_nbheapz8Z2TyEhXIbiW-6">
          <mxGeometry y="30" width="160" height="30" as="geometry" />
        </mxCell>
        <mxCell id="_nbheapz8Z2TyEhXIbiW-8" value="&lt;div&gt;CheckDescription: Bool&lt;/div&gt;" style="text;strokeColor=none;fillColor=none;align=left;verticalAlign=middle;spacingLeft=4;spacingRight=4;overflow=hidden;points=[[0,0.5],[1,0.5]];portConstraint=eastwest;rotatable=0;whiteSpace=wrap;html=1;" vertex="1" parent="_nbheapz8Z2TyEhXIbiW-6">
          <mxGeometry y="60" width="160" height="30" as="geometry" />
        </mxCell>
        <mxCell id="_nbheapz8Z2TyEhXIbiW-9" value="CheckImage: Bool" style="text;strokeColor=none;fillColor=none;align=left;verticalAlign=middle;spacingLeft=4;spacingRight=4;overflow=hidden;points=[[0,0.5],[1,0.5]];portConstraint=eastwest;rotatable=0;whiteSpace=wrap;html=1;" vertex="1" parent="_nbheapz8Z2TyEhXIbiW-6">
          <mxGeometry y="90" width="160" height="30" as="geometry" />
        </mxCell>
        <mxCell id="_nbheapz8Z2TyEhXIbiW-10" value="CheckVideo: Bool" style="text;strokeColor=none;fillColor=none;align=left;verticalAlign=middle;spacingLeft=4;spacingRight=4;overflow=hidden;points=[[0,0.5],[1,0.5]];portConstraint=eastwest;rotatable=0;whiteSpace=wrap;html=1;" vertex="1" parent="_nbheapz8Z2TyEhXIbiW-6">
          <mxGeometry y="120" width="160" height="30" as="geometry" />
        </mxCell>
        <mxCell id="_nbheapz8Z2TyEhXIbiW-11" value="Context: String" style="text;strokeColor=none;fillColor=none;align=left;verticalAlign=middle;spacingLeft=4;spacingRight=4;overflow=hidden;points=[[0,0.5],[1,0.5]];portConstraint=eastwest;rotatable=0;whiteSpace=wrap;html=1;" vertex="1" parent="_nbheapz8Z2TyEhXIbiW-6">
          <mxGeometry y="150" width="160" height="30" as="geometry" />
        </mxCell>
        <mxCell id="_nbheapz8Z2TyEhXIbiW-12" style="edgeStyle=orthogonalEdgeStyle;rounded=0;orthogonalLoop=1;jettySize=auto;html=1;entryX=1;entryY=0;entryDx=0;entryDy=0;dashed=1;startArrow=classicThin;startFill=1;endArrow=none;" edge="1" parent="1" source="_nbheapz8Z2TyEhXIbiW-5" target="_nbheapz8Z2TyEhXIbiW-6">
          <mxGeometry relative="1" as="geometry">
            <Array as="points">
              <mxPoint x="240" y="400" />
              <mxPoint x="240" y="400" />
            </Array>
          </mxGeometry>
        </mxCell>
        <mxCell id="_nbheapz8Z2TyEhXIbiW-21" style="edgeStyle=orthogonalEdgeStyle;rounded=0;orthogonalLoop=1;jettySize=auto;html=1;entryX=0.5;entryY=0;entryDx=0;entryDy=0;" edge="1" parent="1" source="_nbheapz8Z2TyEhXIbiW-13" target="_nbheapz8Z2TyEhXIbiW-18">
          <mxGeometry relative="1" as="geometry" />
        </mxCell>
        <mxCell id="_nbheapz8Z2TyEhXIbiW-13" value="Server collects the data from the post" style="ellipse;whiteSpace=wrap;html=1;" vertex="1" parent="1">
          <mxGeometry x="280" y="480" width="120" height="80" as="geometry" />
        </mxCell>
        <mxCell id="_nbheapz8Z2TyEhXIbiW-14" value="Server" style="image;aspect=fixed;perimeter=ellipsePerimeter;html=1;align=center;shadow=0;dashed=0;spacingTop=3;image=img/lib/active_directory/generic_server.svg;" vertex="1" parent="1">
          <mxGeometry x="468.5" y="495" width="28.000000000000004" height="50" as="geometry" />
        </mxCell>
        <mxCell id="_nbheapz8Z2TyEhXIbiW-17" style="edgeStyle=orthogonalEdgeStyle;rounded=0;orthogonalLoop=1;jettySize=auto;html=1;entryX=1;entryY=0.5;entryDx=0;entryDy=0;" edge="1" parent="1" source="_nbheapz8Z2TyEhXIbiW-14" target="_nbheapz8Z2TyEhXIbiW-13">
          <mxGeometry relative="1" as="geometry">
            <mxPoint x="420" y="560" as="targetPoint" />
          </mxGeometry>
        </mxCell>
        <mxCell id="_nbheapz8Z2TyEhXIbiW-28" style="edgeStyle=orthogonalEdgeStyle;rounded=0;orthogonalLoop=1;jettySize=auto;html=1;" edge="1" parent="1" source="_nbheapz8Z2TyEhXIbiW-18" target="_nbheapz8Z2TyEhXIbiW-27">
          <mxGeometry relative="1" as="geometry" />
        </mxCell>
        <mxCell id="_nbheapz8Z2TyEhXIbiW-18" value="Server collects the urls for the vehicles it will visit" style="ellipse;whiteSpace=wrap;html=1;" vertex="1" parent="1">
          <mxGeometry x="280" y="600" width="120" height="80" as="geometry" />
        </mxCell>
        <mxCell id="_nbheapz8Z2TyEhXIbiW-20" style="edgeStyle=orthogonalEdgeStyle;rounded=0;orthogonalLoop=1;jettySize=auto;html=1;entryX=1;entryY=0.5;entryDx=0;entryDy=0;" edge="1" parent="1" source="_nbheapz8Z2TyEhXIbiW-19" target="_nbheapz8Z2TyEhXIbiW-18">
          <mxGeometry relative="1" as="geometry" />
        </mxCell>
        <mxCell id="_nbheapz8Z2TyEhXIbiW-19" value="&lt;div&gt;Database&lt;/div&gt;" style="image;aspect=fixed;perimeter=ellipsePerimeter;html=1;align=center;shadow=0;dashed=0;spacingTop=3;image=img/lib/active_directory/database_cube.svg;" vertex="1" parent="1">
          <mxGeometry x="460" y="615" width="45" height="50" as="geometry" />
        </mxCell>
        <mxCell id="_nbheapz8Z2TyEhXIbiW-26" style="edgeStyle=orthogonalEdgeStyle;rounded=0;orthogonalLoop=1;jettySize=auto;html=1;entryX=1;entryY=0.5;entryDx=0;entryDy=0;exitX=0.003;exitY=0.999;exitDx=0;exitDy=0;exitPerimeter=0;strokeWidth=1;dashed=1;endArrow=classicThin;endFill=1;" edge="1" parent="1" source="_nbheapz8Z2TyEhXIbiW-25" target="_nbheapz8Z2TyEhXIbiW-19">
          <mxGeometry relative="1" as="geometry">
            <mxPoint x="560" y="620" as="sourcePoint" />
            <Array as="points">
              <mxPoint x="560" y="640" />
              <mxPoint x="560" y="640" />
            </Array>
          </mxGeometry>
        </mxCell>
        <mxCell id="_nbheapz8Z2TyEhXIbiW-22" value="NewsVehicle" style="swimlane;fontStyle=0;childLayout=stackLayout;horizontal=1;startSize=30;horizontalStack=0;resizeParent=1;resizeParentMax=0;resizeLast=0;collapsible=1;marginBottom=0;whiteSpace=wrap;html=1;" vertex="1" parent="1">
          <mxGeometry x="580" y="520" width="140" height="120" as="geometry" />
        </mxCell>
        <mxCell id="_nbheapz8Z2TyEhXIbiW-23" value="URL: String" style="text;strokeColor=none;fillColor=none;align=left;verticalAlign=middle;spacingLeft=4;spacingRight=4;overflow=hidden;points=[[0,0.5],[1,0.5]];portConstraint=eastwest;rotatable=0;whiteSpace=wrap;html=1;" vertex="1" parent="_nbheapz8Z2TyEhXIbiW-22">
          <mxGeometry y="30" width="140" height="30" as="geometry" />
        </mxCell>
        <mxCell id="_nbheapz8Z2TyEhXIbiW-24" value="Language: String" style="text;strokeColor=none;fillColor=none;align=left;verticalAlign=middle;spacingLeft=4;spacingRight=4;overflow=hidden;points=[[0,0.5],[1,0.5]];portConstraint=eastwest;rotatable=0;whiteSpace=wrap;html=1;" vertex="1" parent="_nbheapz8Z2TyEhXIbiW-22">
          <mxGeometry y="60" width="140" height="30" as="geometry" />
        </mxCell>
        <mxCell id="_nbheapz8Z2TyEhXIbiW-25" value="Credibility: Integer (within a range)" style="text;strokeColor=none;fillColor=none;align=left;verticalAlign=middle;spacingLeft=4;spacingRight=4;overflow=hidden;points=[[0,0.5],[1,0.5]];portConstraint=eastwest;rotatable=0;whiteSpace=wrap;html=1;" vertex="1" parent="_nbheapz8Z2TyEhXIbiW-22">
          <mxGeometry y="90" width="140" height="30" as="geometry" />
        </mxCell>
        <mxCell id="_nbheapz8Z2TyEhXIbiW-31" style="edgeStyle=orthogonalEdgeStyle;rounded=0;orthogonalLoop=1;jettySize=auto;html=1;entryX=0.5;entryY=0;entryDx=0;entryDy=0;" edge="1" parent="1" source="_nbheapz8Z2TyEhXIbiW-27" target="_nbheapz8Z2TyEhXIbiW-30">
          <mxGeometry relative="1" as="geometry" />
        </mxCell>
        <mxCell id="_nbheapz8Z2TyEhXIbiW-27" value="Server triggers crawlers to search for content related to the post" style="ellipse;whiteSpace=wrap;html=1;" vertex="1" parent="1">
          <mxGeometry x="280" y="720" width="120" height="80" as="geometry" />
        </mxCell>
        <mxCell id="_nbheapz8Z2TyEhXIbiW-34" style="edgeStyle=orthogonalEdgeStyle;rounded=0;orthogonalLoop=1;jettySize=auto;html=1;entryX=0;entryY=0.5;entryDx=0;entryDy=0;" edge="1" parent="1" source="_nbheapz8Z2TyEhXIbiW-30" target="_nbheapz8Z2TyEhXIbiW-33">
          <mxGeometry relative="1" as="geometry" />
        </mxCell>
        <mxCell id="_nbheapz8Z2TyEhXIbiW-30" value="Server sends the results to the DeepSeek containers" style="ellipse;whiteSpace=wrap;html=1;" vertex="1" parent="1">
          <mxGeometry x="280" y="840" width="120" height="80" as="geometry" />
        </mxCell>
        <mxCell id="_nbheapz8Z2TyEhXIbiW-36" style="edgeStyle=orthogonalEdgeStyle;rounded=0;orthogonalLoop=1;jettySize=auto;html=1;entryX=0;entryY=0.5;entryDx=0;entryDy=0;" edge="1" parent="1" source="_nbheapz8Z2TyEhXIbiW-33" target="_nbheapz8Z2TyEhXIbiW-35">
          <mxGeometry relative="1" as="geometry" />
        </mxCell>
        <mxCell id="_nbheapz8Z2TyEhXIbiW-33" value="DeepSeek analyzes all the data received" style="ellipse;whiteSpace=wrap;html=1;" vertex="1" parent="1">
          <mxGeometry x="440" y="840" width="120" height="80" as="geometry" />
        </mxCell>
        <mxCell id="_nbheapz8Z2TyEhXIbiW-35" value="Server sends back to client the feedback" style="ellipse;whiteSpace=wrap;html=1;" vertex="1" parent="1">
          <mxGeometry x="600" y="840" width="120" height="80" as="geometry" />
        </mxCell>
        <mxCell id="_nbheapz8Z2TyEhXIbiW-39" style="edgeStyle=orthogonalEdgeStyle;rounded=0;orthogonalLoop=1;jettySize=auto;html=1;entryX=1;entryY=0.5;entryDx=0;entryDy=0;" edge="1" parent="1" source="_nbheapz8Z2TyEhXIbiW-37" target="_nbheapz8Z2TyEhXIbiW-27">
          <mxGeometry relative="1" as="geometry" />
        </mxCell>
        <mxCell id="_nbheapz8Z2TyEhXIbiW-37" value="&lt;div&gt;Crawlers&lt;/div&gt;" style="sketch=0;outlineConnect=0;fontColor=#232F3E;gradientColor=none;fillColor=#8C4FFF;strokeColor=none;dashed=0;verticalLabelPosition=bottom;verticalAlign=top;align=center;html=1;fontSize=12;fontStyle=0;aspect=fixed;pointerEvents=1;shape=mxgraph.aws4.glue_crawlers;" vertex="1" parent="1">
          <mxGeometry x="464.25" y="741.75" width="36.5" height="36.5" as="geometry" />
        </mxCell>
      </root>
    </mxGraphModel>
  </diagram>
</mxfile>
